<?xml version="1.0" encoding="UTF-8" standalone="no"?>
<!-- Created with Inkscape (http://www.inkscape.org/) -->
<svg
   xmlns:dc="http://purl.org/dc/elements/1.1/"
   xmlns:cc="http://web.resource.org/cc/"
   xmlns:rdf="http://www.w3.org/1999/02/22-rdf-syntax-ns#"
   xmlns:svg="http://www.w3.org/2000/svg"
   xmlns="http://www.w3.org/2000/svg"
   xmlns:sodipodi="http://sodipodi.sourceforge.net/DTD/sodipodi-0.dtd"
   xmlns:inkscape="http://www.inkscape.org/namespaces/inkscape"
   width="500.08627"
   height="556.02789"
   id="svg2626"
   sodipodi:version="0.32"
   inkscape:version="0.44"
   version="1.0"
   sodipodi:docbase="E:\MES IMAGES\BLASONS\SUISSE\SVG"
   sodipodi:docname="Blason-CH-canton-JURA.svg"
   inkscape:export-filename="E:\MES IMAGES\BLASONS\SUISSE\SVG\Blason-CH-canton-JURA.png"
   inkscape:export-xdpi="90"
   inkscape:export-ydpi="90">
  <defs
     id="defs2628" />
  <sodipodi:namedview
     id="base"
     pagecolor="#ffffff"
     bordercolor="#666666"
     borderopacity="1.0"
     inkscape:pageopacity="0.0"
     inkscape:pageshadow="2"
     inkscape:zoom="0.67711016"
     inkscape:cx="249.91811"
     inkscape:cy="278.13892"
     inkscape:document-units="px"
     inkscape:current-layer="layer1"
     inkscape:window-width="939"
     inkscape:window-height="573"
     inkscape:window-x="22"
     inkscape:window-y="29" />
  <metadata
     id="metadata2631">
    <rdf:RDF>
      <cc:Work
         rdf:about="">
        <dc:format>image/svg+xml</dc:format>
        <dc:type
           rdf:resource="http://purl.org/dc/dcmitype/StillImage" />
      </cc:Work>
    </rdf:RDF>
  </metadata>
  <g
     inkscape:label="Calque 1"
     inkscape:groupmode="layer"
     id="layer1"
     transform="translate(-124.9569,-254.3482)">
    <path
       style="fill:white;fill-rule:evenodd;stroke:black;stroke-width:3;stroke-linecap:butt;stroke-linejoin:round;stroke-miterlimit:4;stroke-dasharray:none;stroke-opacity:1"
       d="M 126.20687,257.07038 L 140.92836,265.90327 L 165.95489,274.73616 L 193.92571,279.15261 L 226.31298,285.0412 L 260.1724,283.56905 L 295.50397,280.62476 L 327.89124,276.20831 L 358.80637,265.90327 L 377.9443,255.59823 L 400.02653,267.37542 L 430.94165,276.20831 L 457.44033,280.62476 L 482.46686,282.0969 L 510.43768,282.0969 L 539.88066,279.15261 L 566.37933,277.68046 L 598.7666,268.84757 L 623.79313,258.54253 L 623.79313,497.03062 L 620.84884,547.08367 L 614.96024,567.69376 L 606.12735,595.66458 L 594.35016,619.21896 L 575.21223,653.07838 L 557.54644,676.63276 L 542.82495,697.24284 L 522.21487,716.38077 L 504.54909,731.10226 L 483.93901,747.2959 L 464.80107,763.48953 L 448.60744,775.26672 L 425.05306,788.51606 L 404.44298,798.8211 L 382.36075,809.12614 L 354.38992,797.34895 L 327.89124,784.09961 L 301.39257,767.90598 L 276.36604,750.24019 L 248.39521,728.15796 L 220.42439,700.18714 L 199.81431,676.63276 L 177.73208,644.24549 L 163.01059,619.21896 L 149.76125,588.30384 L 137.98406,551.50012 L 130.62332,514.6964 L 127.67902,473.47624 L 126.20687,257.07038 z "
       id="path6346"
       inkscape:export-xdpi="90"
       inkscape:export-ydpi="90"
       inkscape:export-filename="C:\Documents and Settings\MARTIAL\Mes documents\Mes images\BLASONS\SUISSE\SVG\Blason-CH-ECU-canton-BALE-campagne.png" />
    <path
       style="fill:white;fill-rule:evenodd;stroke:black;stroke-width:3;stroke-linecap:butt;stroke-linejoin:round;stroke-opacity:1;stroke-miterlimit:4;stroke-dasharray:none"
       d="M 1.474875,2.9497501 C 84.067877,27.463095 172.56834,36.462634 255.16134,2.2123125 C 345.31176,39.812905 418.45944,29.409636 497.03289,1.474875 L 498.50777,244.82926 L 497.03289,271.37701 L 492.60827,300.87451 L 483.75902,331.84689 L 471.96002,359.86951 L 455.73639,386.41726 L 439.51276,412.96501 L 419.2965,441.50909 L 395.26651,463.11077 L 376.09314,479.33439 L 356.91976,494.08314 L 332.27887,514.12048 L 311.19864,526.53039 L 286.12576,541.27914 L 258.10313,553.07814 L 233.03026,544.22889 L 200.58301,528.00527 L 174.03526,511.78164 L 143.06288,489.65852 L 122.41463,471.96002 L 98.816628,449.83689 L 78.168378,427.71376 L 61.944752,402.64089 L 44.246251,377.56801 L 30.972376,349.54539 L 19.173376,315.62326 L 8.8492503,277.27651 L 4.4246251,241.87951 L 0,206.48251 L 1.474875,2.9497501 z "
       id="path1884"
       transform="translate(124.9569,254.3482)"
       inkscape:export-filename="E:\MES IMAGES\BLASONS\SUISSE\SVG\Blason-CH-canton-BALE-1.png"
       inkscape:export-xdpi="90"
       inkscape:export-ydpi="90"
       sodipodi:nodetypes="ccccccccccccccccccccccccccccccccc" />
    <g
       transform="matrix(0.678703,0,0,1,39.44255,-13.31995)"
       id="g2907"
       style="fill:red">
      <path
         transform="translate(127.5703,251.9285)"
         id="path10257"
         d="M 209.04512,204.62867 L 307.67908,206.10082 L 307.67908,189.90718 L 304.73478,173.71354 L 301.79049,156.04776 L 297.37404,139.85412 L 291.48545,128.07693 L 279.70826,111.8833 L 267.93107,95.689663 L 256.15388,85.384622 L 242.90454,78.023878 L 229.6552,72.135283 L 213.46156,67.718837 L 200.21222,64.77454 L 182.54644,64.77454 L 161.93636,67.718837 L 136.90983,76.551729 L 117.7719,89.801068 L 104.52256,101.57826 L 95.689666,116.29974 L 94.217518,133.96553 L 95.689666,150.15916 L 98.633964,166.3528 L 108.939,178.12999 L 120.71619,185.49073 L 135.43768,192.85148 L 150.15917,192.85148 L 163.40851,191.37933 L 176.65785,186.96288 L 186.96289,178.12999 L 192.85148,163.4085 L 189.90718,150.15916 L 182.54644,142.79842 L 175.1857,136.90983 L 161.93636,136.90983 L 151.63132,144.27057 L 148.68702,148.68702 L 156.04776,148.68702 L 161.93636,153.10346 L 161.93636,160.46421 L 154.57561,161.93635 L 145.74272,161.93635 L 138.38198,156.04776 L 136.90983,145.74272 L 142.79843,136.90983 L 151.63132,129.54908 L 166.3528,122.18834 L 181.07429,123.66049 L 192.85148,129.54908 L 201.68437,135.43768 L 209.04512,147.21487 L 213.46156,156.04776 L 213.46156,170.76925 L 213.46156,188.43503 L 209.04512,204.62867 z "
         style="fill:red;fill-rule:evenodd;stroke:black;stroke-width:1.21383595px;stroke-linecap:butt;stroke-linejoin:miter;stroke-opacity:1" />
      <path
         transform="translate(127.5703,251.9285)"
         id="path10259"
         d="M 189.90718,210.51726 L 325.34487,210.51726 L 325.34487,220.8223 L 189.90718,220.8223 L 189.90718,210.51726 z "
         style="fill:red;fill-rule:evenodd;stroke:black;stroke-width:1.21383595px;stroke-linecap:butt;stroke-linejoin:miter;stroke-opacity:1" />
      <path
         transform="translate(127.5703,251.9285)"
         id="path10261"
         d="M 175.1857,226.7109 L 341.5385,226.7109 L 347.4271,231.12734 L 348.89924,237.01594 L 348.89924,244.37668 L 344.4828,247.32098 L 341.5385,247.32098 L 175.1857,247.32098 L 170.76925,244.37668 L 166.3528,239.96024 L 166.3528,234.07164 L 169.2971,231.12734 L 175.1857,226.7109 z "
         style="fill:red;fill-rule:evenodd;stroke:black;stroke-width:1.21383595px;stroke-linecap:butt;stroke-linejoin:miter;stroke-opacity:1" />
      <path
         transform="translate(127.5703,251.9285)"
         id="path10263"
         d="M 186.96289,254.68172 L 334.17776,254.68172 L 334.17776,266.45891 L 185.49074,266.45891 L 186.96289,254.68172 z "
         style="fill:red;fill-rule:evenodd;stroke:black;stroke-width:1.21383595px;stroke-linecap:butt;stroke-linejoin:miter;stroke-opacity:1" />
      <path
         transform="translate(127.5703,251.9285)"
         id="path10265"
         d="M 197.26793,273.81966 L 319.45627,272.34751 L 354.78784,454.89395 L 297.37404,418.09023 L 257.62602,457.83825 L 217.87801,418.09023 L 161.93636,456.3661 L 197.26793,273.81966 z "
         style="fill:red;fill-rule:evenodd;stroke:black;stroke-width:1.21383595px;stroke-linecap:butt;stroke-linejoin:miter;stroke-opacity:1" />
    </g>
    <path
       style="fill:none;fill-rule:evenodd;stroke:black;stroke-width:1px;stroke-linecap:butt;stroke-linejoin:miter;stroke-opacity:1"
       d="M 256.62826,553.07814 L 259.57403,0"
       id="path1885"
       transform="translate(124.9569,254.3482)"
       sodipodi:nodetypes="cc" />
    <path
       style="fill:red;fill-rule:evenodd;stroke:black;stroke-width:1px;stroke-linecap:butt;stroke-linejoin:miter;stroke-opacity:1"
       d="M 620.51492,255.82311 C 551.11896,284.4139 470.61936,297.57106 381.57919,255.82311 L 383.05605,339.89099 L 621.98979,339.89099 L 620.51492,255.82311 z "
       id="path1887"
       sodipodi:nodetypes="ccccc" />
    <path
       style="fill:red;fill-rule:evenodd;stroke:black;stroke-width:1px;stroke-linecap:butt;stroke-linejoin:miter;stroke-opacity:1"
       d="M 621.98979,406.99777 L 383.05406,406.99777 L 381.57719,491.06565 L 623.46466,491.06565 L 621.98979,406.99777 z "
       id="path1893"
       sodipodi:nodetypes="ccccc" />
    <path
       style="fill:red;fill-rule:evenodd;stroke:black;stroke-width:1px;stroke-linecap:butt;stroke-linejoin:miter;stroke-opacity:1"
       d="M 614.43649,573.1372 L 383.06003,573.65865 L 383.06003,657.72653 L 572.79746,657.72653 L 579.37115,647.21805 L 584.90193,636.70956 L 590.43271,627.24396 L 597.52783,615.17114 L 602.53716,604.66266 L 607.02506,594.15417 L 610.47005,584.16713 L 614.43649,573.1372 z "
       id="path1895"
       sodipodi:nodetypes="cccccccccccc" />
    <path
       style="fill:red;fill-rule:evenodd;stroke:black;stroke-width:1px;stroke-linecap:butt;stroke-linejoin:miter;stroke-opacity:1"
       d="M 515.7988,721.14615 L 382.62805,722.62103 L 381.58516,809.29615 L 400.17383,801.18434 L 419.28394,792.02962 L 435.78682,783.39636 L 452.81115,773.19877 L 469.34023,760.96778 L 484.82642,747.69391 L 500.31261,734.42003 L 515.7988,721.14615 z "
       id="path1897"
       sodipodi:nodetypes="ccccccccccc" />
  </g>
</svg>
