<svg width="431" height="261" viewBox="0 0 431 261" fill="none" xmlns="http://www.w3.org/2000/svg">
<path d="M254 0L253 1V2L252 3L253 4V7L251 9V12L250 13V14L249 15V16L247 18H246L244 16H240L239 17H225L223 15V14L222 13V12H220L219 11H217L216 12L214 10H213L210 13H208L206 15H205L201 19H190L189 20H187L185 18V16L184 15H183L182 14H181L180 15H176V17L174 19H173L172 20H170L169 21H167L166 22H163L161 20V19L163 17V15L162 14H160L159 15H157L156 14H155L154 15V16L153 17H151L147 21V22L148 23V25L147 26V27L146 28H145L144 29L143 28H139V29H140L141 30V31L136 36H126L125 37H121L119 35H116L115 34V32L116 31V28H112L111 27H110L109 28H98V34L97 35H96L95 36H94L93 37V38L92 39V40L87 45V47H96L97 46H99L100 45H101L103 47V48L104 49L102 51H101L100 52V53L99 54V55L98 56H94L93 57V60L94 61V62L91 65V66L90 67H89V68L88 69H87V70L86 71H85V72L84 73V74L79 79H78L77 80H76L74 82V84L73 85H71L70 86V89L71 90L70 91H69L68 92H67L66 93V94L61 99H58L57 100H56L55 101H52L51 102H50L49 103H48V104L45 107V108L46 109V110L47 111V116L46 117V120L45 121V125L46 126V129L43 132H42L40 134H39L35 138H33L31 140H30L17 153H16V154L15 155H14V157L18 161L14 165V166L12 168V169L11 170V171L10 172V173L11 174V175L10 176V179H11L14 182H15L19 186L17 188V189L16 190V191L15 192V193L14 194V196L13 197V199L14 200V202L13 203H5L1 207V209L3 211V212L2 213H1V215L0 216H19L20 215V214L21 213V211L22 210H23L25 208H26L27 207H28L29 206H30L33 203V202L32 201V200H30L29 201L26 198V195L24 193L25 192V190L27 188V187L29 185H30L32 183H33L35 181H36L37 180H39L40 179H44L46 177H47L49 175H50L52 173H68L69 174H71L72 175H77L78 176H80L81 177V180L80 181V183L78 185H77V188L78 189V190L82 194V195L85 198V199L83 201V202L81 204V206L80 207V212L79 213V217L80 218H86L88 220V223L87 224V230H88L89 229H90L91 228H92L94 230V231L98 235V236L100 238V239L99 240V241L100 242H101L102 243V246L103 247V248L106 251V252L108 254V255H110L112 253H114L116 255H117V254L120 251H123L127 247L128 248H132L134 250H135L137 248H139L141 246H142L144 244V243L145 242H150V239L151 238H153L155 240H161L163 242H164L166 244V246L167 247H168L171 244L174 247H181V245L182 244V241L183 240V239L185 237H186L187 236H192L195 233V232L197 230V229L196 228V225L197 224V223L198 222H200L201 221H202L203 220H204V219L205 218H206L208 216V213L209 212V211L208 210V207L207 206V205L206 204V203L204 201H203L202 200L207 195H212L215 192V191L218 188H219V186L220 185H223V178L224 177H225L227 175H228L229 174H230L231 173H233L234 172H236L238 174V190L236 192V193L235 194V196L236 197V198L237 199V200L236 201H237L238 202V203L240 205H243L244 206V207L245 208V209L247 211V212L251 216V217L252 218V219H254L255 220H257L258 221H259L260 222H262L264 220H265L266 221V222H267L268 223H269L270 222L275 227V228L270 233V234L268 236V237H270L271 238H272L275 241H276L277 242H278L279 243V246L280 247V248L281 249V250L282 251V252L283 253V255L281 257V258L282 259H287L288 260V261H292V259L294 257V255L296 253V252L297 251V249L295 247H294L293 246H292L290 244V241H289L288 240L290 238V236L291 235V234L290 233V231L293 228H294L295 227H297V219L298 218H299L303 214H304L305 213H306L307 212V211L308 210V209L309 208V207L313 203V200L314 199V198L316 196V193L317 192V187L316 186V179L314 177H313L312 176L315 173H316V169L318 167H322L323 166L325 168V169L327 171H328L330 169H331V168L332 167L333 168V185H335L337 187V189L339 191V192L341 194H344L345 195H346L348 197H350L351 196H352L353 195H354L355 196H357V195L358 194V190L360 188H361L362 189H364L365 188H366L368 186H372L373 185H381L383 187V191L384 192V195L383 196L385 198H387L390 201V206H391L392 205H397L401 201V200L400 199V198L398 196V195L396 193V192L395 191V187L396 186V185L398 183H399L400 182V179H399L398 178V177L397 176H396L395 177H394L393 178L389 174V162L391 160V159L392 158H393V156L394 155V154L396 152H398L399 151H401L402 150H403L404 151H405L407 149L408 150V157H411L412 158V159L413 160H417L418 159L419 160H425L426 161V162H428L430 160V153L431 152V151L428 148H427L426 147H425L424 148L423 147V146L422 145V143L421 142L422 141V140L424 138V135L426 133V126L427 125V124L428 123V120L429 119V113L430 112V105H429L428 104H427L425 102V100L422 97H421L420 98H419L418 99H417V100L416 101V102L413 105V106L414 107L413 108H412L411 107H410L409 106L407 108V110L406 111L407 112V114L405 116H404L403 117H400L399 118H398L397 119H395L394 118H393L392 117H391L389 115V114L387 112H385L383 110H382L381 109H378L377 108H376L373 105V100L374 99V97L372 95V94H371L370 95H368L366 93H365L363 91H358L357 90H356L355 89H351L350 90H343L342 89H338L337 90H335L334 89L339 84V82L338 81V79L337 78V76L335 74V71L336 70V69L337 68V66L338 65V64L339 63V61L340 60V59L344 55V54L346 52V49L347 48H348V47L350 45H353V42L352 41V40L351 39V34L349 32H347L344 29V28L342 26V22L341 21H340L339 20H338L337 19H336L335 18V17H334L332 15H331L329 13H327L325 11H324L322 9H321L318 6H315L314 5H308L307 4H302L300 2H298L297 1H295L294 0H293L292 1H290L289 2H287L283 6H278L276 4H275L273 2H269L268 1H267L266 0H254Z" fill="#FF0000"/>
<path d="M231.85 46H199.15V155H231.85V46Z" fill="white"/>
<path d="M270 84.1499H161V116.85H270V84.1499Z" fill="white"/>
</svg>
